<svg width="90" height="22" viewBox="0 0 90 22" fill="none" xmlns="http://www.w3.org/2000/svg">
<path d="M0.72 5.5C0.72 2.82 2.98 0.92 6.16 0.92C9.34 0.92 11.34 2.68 11.34 5.48H8.12C8.12 4.44 7.34 3.8 6.12 3.8C4.8 3.8 3.96 4.4 3.96 5.38C3.96 6.28 4.42 6.72 5.46 6.94L7.68 7.4C10.32 7.94 11.58 9.2 11.58 11.54C11.58 14.4 9.34 16.26 5.94 16.26C2.64 16.26 0.5 14.48 0.5 11.7H3.72C3.72 12.78 4.52 13.38 5.96 13.38C7.42 13.38 8.34 12.8 8.34 11.86C8.34 11.04 7.96 10.62 6.98 10.42L4.72 9.96C2.08 9.42 0.72 7.92 0.72 5.5ZM15.9275 16H12.8475V0.92H15.9475V7.04C16.5675 6.18 17.7075 5.68 19.0075 5.68C21.3875 5.68 22.7675 7.2 22.7675 9.82V16H19.6875V10.56C19.6875 9.3 18.9875 8.48 17.9275 8.48C16.7075 8.48 15.9275 9.28 15.9275 10.52V16ZM23.9364 10.98C23.9364 7.82 26.2564 5.7 29.4564 5.7C32.6364 5.7 34.9564 7.82 34.9564 10.98C34.9564 14.14 32.6364 16.24 29.4564 16.24C26.2564 16.24 23.9364 14.14 23.9364 10.98ZM27.0364 10.96C27.0364 12.48 28.0164 13.48 29.4564 13.48C30.8764 13.48 31.8564 12.48 31.8564 10.96C31.8564 9.46 30.8764 8.46 29.4564 8.46C28.0164 8.46 27.0364 9.46 27.0364 10.96ZM36.242 20.8V6H39.142L39.302 7.22C39.862 6.3 41.122 5.68 42.542 5.68C45.322 5.68 47.262 7.62 47.262 10.84C47.262 14 45.542 16.28 42.562 16.28C41.182 16.28 39.902 15.76 39.322 15V20.8H36.242ZM39.342 11C39.342 12.5 40.342 13.5 41.782 13.5C43.242 13.5 44.162 12.48 44.162 11C44.162 9.52 43.242 8.5 41.782 8.5C40.342 8.5 39.342 9.5 39.342 11Z" fill="#0D0A0A"/>
<path d="M58.315 16H48.915V1.2H58.315V4.2H52.155V7.1H57.615V9.94H52.155V13H58.315V16ZM63.1058 16.26C60.9858 16.26 59.6658 15.02 59.6658 13.06C59.6658 11.22 60.9658 10.08 63.3658 9.9L66.1658 9.68V9.52C66.1658 8.54 65.5658 8.02 64.4658 8.02C63.1658 8.02 62.4658 8.52 62.4658 9.42H59.9058C59.9058 7.16 61.7658 5.68 64.6258 5.68C67.5258 5.68 69.1658 7.3 69.1658 10.16V16H66.4458L66.2458 14.68C65.9258 15.6 64.6058 16.26 63.1058 16.26ZM64.1858 13.98C65.3658 13.98 66.1858 13.4 66.1858 12.26V11.72L64.6258 11.86C63.2858 11.98 62.8058 12.28 62.8058 12.92C62.8058 13.64 63.2458 13.98 64.1858 13.98ZM70.1548 12.84H73.0748C73.1148 13.54 73.6348 13.96 74.5748 13.96C75.5348 13.96 75.9748 13.62 75.9748 13.1C75.9748 12.8 75.8148 12.48 75.0748 12.32L73.2348 11.92C71.3948 11.52 70.4948 10.72 70.4948 8.96C70.4948 6.88 72.2748 5.68 74.6748 5.68C76.9948 5.68 78.6148 7.04 78.6148 9.06H75.6948C75.6948 8.38 75.2748 7.92 74.5348 7.92C73.8348 7.92 73.3948 8.28 73.3948 8.82C73.3948 9.28 73.7748 9.54 74.4748 9.7L76.3348 10.1C77.9748 10.46 78.8748 11.22 78.8748 12.82C78.8748 14.96 77.0548 16.26 74.4548 16.26C71.8148 16.26 70.1548 14.86 70.1548 12.84ZM78.9889 20.8V18.22H80.6889C81.7289 18.22 82.1689 17.9 82.5689 16.82L82.7489 16.34L78.7289 6H82.0289L84.2089 12.42L86.6289 6H89.8289L84.7489 18.18C83.9089 20.22 82.7889 21.08 81.0289 21.08C80.2889 21.08 79.5889 20.98 78.9889 20.8Z" fill="#EF3C04"/>
</svg>
